<svg height="512pt" viewBox="0 0 512 512" width="512pt" xmlns="http://www.w3.org/2000/svg" xmlns:xlink="http://www.w3.org/1999/xlink"><linearGradient id="a" gradientTransform="matrix(1 0 0 -1 0 -12310)" gradientUnits="userSpaceOnUse" x1="0" x2="512" y1="-12566" y2="-12566"><stop offset="0" stop-color="#00f38d"/><stop offset="1" stop-color="#009eff"/></linearGradient><path d="m512 256c0 141.386719-114.613281 256-256 256s-256-114.613281-256-256 114.613281-256 256-256 256 114.613281 256 256zm0 0" fill="url(#a)"/><path d="m301.894531 182.378906h-180.679687l67.066406-67.070312-21.214844-21.210938-103.28125 103.28125 103.28125 103.28125 21.214844-21.210937-67.066406-67.070313h180.683594c59.605468 0 108.101562 48.496094 108.101562 108.105469 0 28.023437-14.179688 51.851563-26.078125 66.90625l-9.300781 11.765625 23.535156 18.605469 9.304688-11.769531c14.84375-18.785157 32.539062-48.867188 32.539062-85.507813 0-76.152344-61.953125-138.105469-138.105469-138.105469zm0 0" fill="#fff"/></svg>