<svg height="512pt" viewBox="0 0 512 512" width="512pt" xmlns="http://www.w3.org/2000/svg" xmlns:xlink="http://www.w3.org/1999/xlink"><linearGradient id="a" gradientTransform="matrix(1 0 0 -1 0 -16582)" gradientUnits="userSpaceOnUse" x1="0" x2="512" y1="-16838" y2="-16838"><stop offset="0" stop-color="#00f38d"/><stop offset="1" stop-color="#009eff"/></linearGradient><path d="m512 256c0 141.386719-114.613281 256-256 256s-256-114.613281-256-256 114.613281-256 256-256 256 114.613281 256 256zm0 0" fill="url(#a)"/><g fill="#fff"><path d="m199.273438 118.5v-30h-110.773438v110.773438h30v-59.558594l86.449219 86.449218 21.214843-21.214843-86.449218-86.449219zm0 0"/><path d="m204.949219 285.835938-86.449219 86.449218v-59.558594h-30v110.773438h110.773438v-30h-59.558594l86.449218-86.449219zm0 0"/><path d="m312.726562 88.5v30h59.558594l-86.449218 86.449219 21.214843 21.214843 86.449219-86.449218v59.558594h30v-110.773438zm0 0"/><path d="m393.5 372.285156-86.449219-86.449218-21.214843 21.214843 86.449218 86.449219h-59.558594v30h110.773438v-110.773438h-30zm0 0"/></g></svg>