<svg height="512pt" viewBox="0 0 512 512" width="512pt" xmlns="http://www.w3.org/2000/svg" xmlns:xlink="http://www.w3.org/1999/xlink"><linearGradient id="a" gradientTransform="matrix(1 0 0 -1 0 -15158)" gradientUnits="userSpaceOnUse" x1="0" x2="512" y1="-15414" y2="-15414"><stop offset="0" stop-color="#00f38d"/><stop offset="1" stop-color="#009eff"/></linearGradient><path d="m512 256c0 141.386719-114.613281 256-256 256s-256-114.613281-256-256 114.613281-256 256-256 256 114.613281 256 256zm0 0" fill="url(#a)"/><g fill="#fff"><path d="m376.710938 166.480469c-6.113282-55.34375-50.714844-99.945313-106.058594-106.058594-34.261719-3.789063-68.519532 7.132813-94 29.949219-25.496094 22.839844-40.121094 55.554687-40.121094 89.761718v15h30v-15c0-25.6875 10.984375-50.261718 30.136719-67.414062 19.414062-17.386719 44.523437-25.367188 70.691406-22.480469 41.5 4.585938 74.949219 38.035157 79.53125 79.535157 3.6875 33.371093-11.082031 65.886718-38.546875 84.855468-41.542969 28.695313-66.34375 75.355469-66.34375 124.816406v15h30v-15c0-39.605468 19.960938-77.039062 53.394531-100.128906 36.550781-25.25 56.214844-68.484375 51.316407-112.835937zm0 0"/><path d="m241.605469 422.546875h30.789062v30.785156h-30.789062zm0 0"/></g></svg>