<svg height="512pt" viewBox="0 0 512 512" width="512pt" xmlns="http://www.w3.org/2000/svg" xmlns:xlink="http://www.w3.org/1999/xlink"><linearGradient id="a" gradientTransform="matrix(1 0 0 -1 0 -15158)" gradientUnits="userSpaceOnUse" x1="0" x2="512" y1="-15414" y2="-15414"><stop offset="0" stop-color="#00f38d"/><stop offset="1" stop-color="#009eff"/></linearGradient><path d="m512 256c0 141.386719-114.613281 256-256 256s-256-114.613281-256-256 114.613281-256 256-256 256 114.613281 256 256zm0 0" fill="url(#a)"/><g fill="#fff"><path d="m277.792969 147.511719c25.09375 0 45.507812-20.414063 45.507812-45.507813s-20.414062-45.507812-45.507812-45.507812-45.507813 20.414062-45.507813 45.507812 20.414063 45.507813 45.507813 45.507813zm0-61.015625c8.550781 0 15.507812 6.957031 15.507812 15.507812 0 8.550782-6.957031 15.507813-15.507812 15.507813s-15.507813-6.957031-15.507813-15.507813c0-8.550781 6.957032-15.507812 15.507813-15.507812zm0 0"/><path d="m314.300781 388.546875-25.234375 12.503906 27.035156-182.703125c.105469-.726562.160157-1.460937.160157-2.195312 0-13.703125-6.699219-26.503906-17.917969-34.25-11.089844-7.652344-25.226562-9.371094-37.808594-4.597656-.445312.167968-.886718.359374-1.3125.570312l-76.609375 37.777344 13.265625 26.90625 25.269532-12.460938-27.03125 182.609375c-.105469.726563-.160157 1.460938-.160157 2.195313 0 13.65625 6.726563 26.453125 17.988281 34.226562 7.027344 4.847656 15.246094 7.34375 23.515626 7.34375 4.898437 0 9.820312-.875 14.515624-2.660156.457032-.171875.902344-.367188 1.339844-.582031l76.304688-37.800781zm-75.515625 37.414063c-4.652344 1.503906-8.378906-.539063-9.800781-1.523438-1.425781-.984375-4.644531-3.730469-4.996094-8.640625l29.875-201.832031 17.851563-8.800782c3.257812-1.054687 6.722656-.546874 9.585937 1.429688 2.910157 2.007812 4.675781 5.132812 4.929688 8.667969l-29.890625 202zm0 0"/></g></svg>