<svg height="512pt" viewBox="0 0 512 512" width="512pt" xmlns="http://www.w3.org/2000/svg" xmlns:xlink="http://www.w3.org/1999/xlink"><linearGradient id="a" gradientTransform="matrix(1 0 0 -1 0 -9462)" gradientUnits="userSpaceOnUse" x1="0" x2="512" y1="-9718" y2="-9718"><stop offset="0" stop-color="#00f38d"/><stop offset="1" stop-color="#009eff"/></linearGradient><path d="m512 256c0 141.386719-114.613281 256-256 256s-256-114.613281-256-256 114.613281-256 256-256 256 114.613281 256 256zm0 0" fill="url(#a)"/><path d="m421.507812 358.285156h-15c-8.347656 0-15.046874-2.90625-19.914062-8.648437-5.875-6.929688-8.984375-17.824219-8.984375-31.5v-107.898438c0-61.648437-46.722656-113.203125-106.609375-120.671875v-38.566406h-30v38.566406c-59.886719 7.46875-106.609375 59.027344-106.609375 120.671875v112.878907c0 21.695312-11.074219 35.171874-28.898437 35.171874h-15v42.539063h126.710937c-.839844 3.226563-1.289063 6.605469-1.289063 10.085937 0 22.105469 17.984376 40.085938 40.085938 40.085938s40.085938-17.980469 40.085938-40.085938c0-3.480468-.449219-6.859374-1.289063-10.082031h126.710937zm-155.421874 52.628906c0 5.5625-4.523438 10.085938-10.085938 10.085938s-10.085938-4.523438-10.085938-10.085938c0-5.558593 4.523438-10.085937 10.085938-10.085937s10.085938 4.527344 10.085938 10.085937zm-118.820313-40.085937c10.804687-11.53125 17.125-28.109375 17.125-47.710937v-112.878907c0-49.8125 40.488281-90.882812 90.277344-91.601562h2.664062c49.789063.71875 90.277344 41.789062 90.277344 91.601562v107.898438c0 20.878906 5.566406 38.480469 16.101563 50.902343.519531.613282 1.046874 1.207032 1.585937 1.792969h-218.03125zm0 0" fill="#fff"/></svg>