<svg height="512pt" viewBox="0 0 512 512" width="512pt" xmlns="http://www.w3.org/2000/svg" xmlns:xlink="http://www.w3.org/1999/xlink"><linearGradient id="a" gradientTransform="matrix(1 0 0 -1 0 -10886)" gradientUnits="userSpaceOnUse" x1="0" x2="512" y1="-11142" y2="-11142"><stop offset="0" stop-color="#00f38d"/><stop offset="1" stop-color="#009eff"/></linearGradient><path d="m512 256c0 141.386719-114.613281 256-256 256s-256-114.613281-256-256 114.613281-256 256-256 256 114.613281 256 256zm0 0" fill="url(#a)"/><g fill="#fff"><path d="m429.390625 144.214844-5.417969-13.984375-27.972656 10.835937 5.417969 13.984375c6.355469 16.417969 9.582031 33.660157 9.582031 51.25v71.667969h30v-71.667969c0-21.3125-3.90625-42.199219-11.609375-62.085937zm0 0"/><path d="m101 206.300781c0-17.589843 3.226562-34.832031 9.582031-51.25l5.417969-13.984375-27.972656-10.835937-5.417969 13.984375c-7.703125 19.886718-11.609375 40.773437-11.609375 62.085937v71.667969h30zm0 0"/><path d="m387.070312 349.445312c-5.910156-6.96875-9.035156-17.917968-9.035156-31.664062v-108.332031c0-61.882813-46.914062-113.628907-107.035156-121.101563v-38.714844h-30v38.714844c-60.121094 7.472656-107.035156 59.222656-107.035156 121.101563v113.332031c0 11.347656-3.007813 20.648438-8.691406 26.902344-5.039063 5.539062-12.085938 8.46875-20.382813 8.46875h-15v42.59375h127.234375c-.851562 3.253906-1.308594 6.667968-1.308594 10.183594 0 22.160156 18.027344 40.1875 40.183594 40.1875 22.160156 0 40.1875-18.027344 40.1875-40.1875 0-3.515626-.457031-6.929688-1.3125-10.183594h127.238281v-42.59375h-15c-8.402343 0-15.144531-2.929688-20.042969-8.707032zm-120.882812 61.484376c0 5.617187-4.570312 10.183593-10.1875 10.183593s-10.1875-4.566406-10.1875-10.183593c0-5.617188 4.570312-10.183594 10.1875-10.183594s10.1875 4.566406 10.1875 10.183594zm-119.539062-40.183594c.277343-.292969.550781-.585938.820312-.882813 10.789062-11.871093 16.492188-28.148437 16.492188-47.082031v-113.332031c0-50.039063 40.679687-91.300781 90.691406-92.027344h2.691406c50.015625.726563 90.691406 41.988281 90.691406 92.027344v108.332031c0 20.945312 5.585938 38.605469 16.152344 51.066406.546875.648438 1.109375 1.28125 1.683594 1.894532h-219.222656zm0 0"/></g></svg>