<svg viewBox="0 0 512 512" xmlns="http://www.w3.org/2000/svg" xmlns:xlink="http://www.w3.org/1999/xlink"><linearGradient id="a" gradientTransform="matrix(1 0 0 -1 0 -13022)" gradientUnits="userSpaceOnUse" x1="0" x2="512" y1="-13278" y2="-13278"><stop offset="0" stop-color="#00f38d"/><stop offset="1" stop-color="#009eff"/></linearGradient><path d="m512 256c0 141.386719-114.613281 256-256 256s-256-114.613281-256-256 114.613281-256 256-256 256 114.613281 256 256zm0 0" fill="url(#a)"/><g fill="#fff"><path d="m338.84375 456h-165.6875l-117.15625-117.15625v-165.6875l117.15625-117.15625h165.6875l117.15625 117.15625v165.6875zm-153.257812-30h140.828124l99.585938-99.585938v-140.828124l-99.585938-99.585938h-140.828124l-99.585938 99.585938v140.828124zm0 0"/><path d="m241 343.011719h30v31.355469h-30zm0 0"/><path d="m241 133.710938h30v177.945312h-30zm0 0"/></g></svg>