<svg viewBox="0 0 512 512" xmlns="http://www.w3.org/2000/svg" xmlns:xlink="http://www.w3.org/1999/xlink"><linearGradient id="a" gradientTransform="matrix(1 0 0 -1 0 -13022)" gradientUnits="userSpaceOnUse" x1="0" x2="512" y1="-13278" y2="-13278"><stop offset="0" stop-color="#00f38d"/><stop offset="1" stop-color="#009eff"/></linearGradient><path d="m512 256c0 141.386719-114.613281 256-256 256s-256-114.613281-256-256 114.613281-256 256-256 256 114.613281 256 256zm0 0" fill="url(#a)"/><g fill="#fff"><path d="m256 456.453125-6.097656-2.714844c-1.640625-.730469-40.628906-18.261719-80.015625-51.898437-53.40625-45.605469-81.632813-99.109375-81.632813-154.71875v-95.007813c0-22.539062 16.152344-41.792969 38.40625-45.777343 38.308594-6.867188 73.566406-27.773438 91.171875-39.625 11.347657-7.640626 24.546875-11.675782 38.167969-11.675782s26.820312 4.035156 38.167969 11.675782c17.605469 11.851562 52.863281 32.757812 91.171875 39.625 22.253906 3.984374 38.40625 23.238281 38.40625 45.777343v95.007813c0 55.609375-28.230469 109.113281-81.632813 154.71875-39.386719 33.636718-78.375 51.167968-80.015625 51.898437zm0-371.417969c-7.632812 0-15.035156 2.269532-21.414062 6.5625-19.566407 13.167969-58.914063 36.429688-102.632813 44.265625-7.9375 1.421875-13.699219 8.253907-13.699219 16.25v95.003907c0 47.03125 23.738282 91.246093 70.550782 131.421874 27.398437 23.519532 55.210937 38.769532 67.195312 44.828126 11.976562-6.054688 39.792969-21.308594 67.195312-44.828126 46.816407-40.175781 70.550782-84.390624 70.550782-131.421874v-95.003907c0-7.996093-5.761719-14.828125-13.695313-16.25-43.722656-7.835937-83.070312-31.097656-102.636719-44.265625-6.378906-4.292968-13.78125-6.5625-21.414062-6.5625zm0 0"/><path d="m233.59375 330-76.816406-71.914062 20.503906-21.902344 54.378906 50.910156 102.113282-114.503906 22.390624 19.964844zm0 0"/></g></svg>