<svg viewBox="0 0 512 512" xmlns="http://www.w3.org/2000/svg" xmlns:xlink="http://www.w3.org/1999/xlink"><linearGradient id="a" gradientTransform="matrix(1 0 0 -1 0 -18718)" gradientUnits="userSpaceOnUse" x1="0" x2="512" y1="-18974" y2="-18974"><stop offset="0" stop-color="#00f38d"/><stop offset="1" stop-color="#009eff"/></linearGradient><path d="m512 256c0 141.386719-114.613281 256-256 256s-256-114.613281-256-256 114.613281-256 256-256 256 114.613281 256 256zm0 0" fill="url(#a)"/><g fill="#fff"><path d="m392.664062 393.207031h-273.328124c-17.761719 0-33.523438-9.261719-42.171876-24.773437-8.648437-15.507813-8.234374-33.789063 1.101563-48.894532l136.667969-220.859374c8.863281-14.332032 24.214844-22.890626 41.066406-22.890626 16.855469 0 32.207031 8.5625 41.070312 22.898438l136.660157 220.84375c9.339843 15.113281 9.753906 33.394531 1.105469 48.902344-8.648438 15.511718-24.410157 24.773437-42.171876 24.773437zm-136.664062-287.417969c-6.476562 0-12.144531 3.160157-15.550781 8.671876l-.003907.007812-136.667968 220.851562c-3.53125 5.710938-3.683594 12.632813-.410156 18.503907 3.273437 5.875 9.242187 9.382812 15.96875 9.382812h273.328124c6.726563 0 12.695313-3.507812 15.96875-9.382812 3.273438-5.871094 3.121094-12.792969-.417968-18.511719l-136.660156-220.84375c-3.410157-5.519531-9.078126-8.679688-15.554688-8.679688zm0 0"/><path d="m241 309.773438h30v28.8125h-30zm0 0"/><path d="m241 167.867188h30v113.09375h-30zm0 0"/></g></svg>