<svg xmlns="http://www.w3.org/2000/svg" width="384" height="512" viewBox="0 0 384 512">
  <path id="code-branch-solid2" d="M384,144a80,80,0,1,0-102.5,76.8c-.6,16.1-4.2,28.5-11,36.9-15.4,19.2-49.3,22.4-85.2,25.7-28.2,2.6-57.4,5.4-81.3,16.9v-144a80,80,0,1,0-48,0V355.6a80.179,80.179,0,1,0,52.8,1.8A35.194,35.194,0,0,1,123.7,344c16.2-8.2,40.4-10.4,66.1-12.8,42.2-3.9,90-8.4,118.2-43.4,14-17.4,21.1-39.8,21.6-67.9A80.326,80.326,0,0,0,384,144ZM80,64A16,16,0,1,1,64,80,16.047,16.047,0,0,1,80,64Zm0,384a16,16,0,1,1,16-16A16.047,16.047,0,0,1,80,448ZM304,128a16,16,0,1,1-16,16A16.047,16.047,0,0,1,304,128Z" fill="#d32a2a"/>
</svg>
